<?xml version="1.0" encoding="UTF-8"?>
<svg id="Layer_2" data-name="Layer 2" xmlns="http://www.w3.org/2000/svg" viewBox="0 0 414.94 102.35">
  <defs>
    <style>
      .cls-1 {
        opacity: .3;
      }

      .cls-1, .cls-2, .cls-3, .cls-4 {
        fill: #9d2235;
      }

      .cls-2 {
        opacity: .6;
      }

      .cls-3 {
        opacity: .6;
      }

      .cls-5 {
        fill: none;
      }
    </style>
  </defs>
  <g id="Layer_1-2" data-name="Layer 1">
    <g>
      <path class="cls-5" d="m277.71,38.12c-.15-.5-.37-1.2-.66-2.1-.29-.9-.58-1.84-.86-2.8-.29-.96-.53-1.77-.72-2.42-.19.79-.43,1.67-.71,2.64-.28.97-.55,1.88-.81,2.74s-.46,1.5-.59,1.95l-4.04,11.56h12.4l-4.01-11.56Z"/>
      <path class="cls-5" d="m201.51,39.52c-.2-.66-.45-1.52-.78-2.56-.32-1.04-.64-2.11-.97-3.19s-.58-2.03-.78-2.83c-.2.8-.46,1.79-.81,2.97-.34,1.18-.67,2.3-.98,3.35-.31,1.05-.54,1.81-.67,2.26l-3.08,9.96h11.16l-3.11-9.96Z"/>
      <path class="cls-5" d="m52.33,39.52c-.2-.66-.45-1.52-.78-2.56-.32-1.04-.64-2.11-.97-3.19s-.58-2.03-.78-2.83c-.2.8-.46,1.79-.81,2.97-.34,1.18-.67,2.3-.98,3.35-.31,1.05-.54,1.81-.67,2.26l-3.08,9.96h11.16l-3.11-9.96Z"/>
      <path class="cls-5" d="m315.72,98.77l4.24-4.24c.38-.38.59-.88.59-1.41s-.21-1.04-.59-1.41l-4.24-4.24c-.39-.39-.9-.58-1.41-.58s-1.03.19-1.42.58l-4.24,4.24c-.38.38-.59.88-.59,1.41s.21,1.04.59,1.41l4.24,4.24c.78.78,2.05.78,2.83,0Z"/>
      <path d="m246.59,67.29l12.33-32.43h-4.78c-1.49,0-2.81.94-3.3,2.34l-5.86,16.7c-.41,1.19-.81,2.49-1.2,3.88-.39,1.4-.65,2.59-.79,3.59h-.23c-.14-.96-.38-2.14-.73-3.54s-.74-2.71-1.17-3.93l-5.86-16.7c-.49-1.4-1.82-2.34-3.3-2.34h-4.81l12.33,32.43h7.38Z"/>
      <path d="m260.79,67.29c1.48,0,2.81-.94,3.3-2.34l3.3-9.37h16.12l3.3,9.37c.49,1.4,1.82,2.34,3.3,2.34h4.87l-15.66-42.33h-7.67l-15.68,42.33h4.82Zm12.57-29.18c.13-.44.33-1.09.59-1.95s.53-1.77.81-2.74c.28-.97.51-1.85.71-2.64.19.65.43,1.46.72,2.42.29.96.58,1.89.86,2.8.29.9.51,1.6.66,2.1l4.01,11.56h-12.4l4.04-11.56Z"/>
      <path d="m315.66,68c2.36,0,4.55-.22,6.56-.67,2.01-.45,4.08-1.18,6.21-2.2l-1.7-3.56c-.56-1.17-1.93-1.74-3.14-1.26-.92.37-1.82.65-2.72.87-1.56.37-3.05.56-4.45.56-4.24,0-7.6-1.36-10.09-4.09s-3.74-6.45-3.74-11.18,1.36-8.61,4.07-11.41c2.71-2.8,6.17-4.2,10.37-4.2,1.62,0,3.13.14,4.53.42.7.14,1.4.33,2.12.55,1.24.39,2.57-.19,3.06-1.4l1.46-3.63c-1.84-.78-3.64-1.35-5.42-1.7-1.78-.35-3.73-.53-5.86-.53-6.5,0-11.77,2.07-15.81,6.21-4.03,4.14-6.05,9.52-6.05,16.14s1.82,11.69,5.46,15.44c3.64,3.75,8.69,5.62,15.13,5.62Z"/>
      <path d="m352.16,68c2.36,0,4.55-.22,6.56-.67,2.01-.45,4.08-1.18,6.21-2.2l-1.7-3.56c-.56-1.17-1.93-1.74-3.14-1.26-.92.37-1.82.65-2.72.87-1.56.37-3.05.56-4.45.56-4.24,0-7.6-1.36-10.09-4.09s-3.74-6.45-3.74-11.18,1.36-8.61,4.07-11.41c2.71-2.8,6.17-4.2,10.37-4.2,1.62,0,3.13.14,4.53.42.7.14,1.4.33,2.12.55,1.24.39,2.57-.19,3.06-1.4l1.46-3.63c-1.84-.78-3.64-1.35-5.42-1.7-1.78-.35-3.73-.53-5.86-.53-6.5,0-11.77,2.07-15.81,6.21-4.03,4.14-6.05,9.52-6.05,16.14s1.82,11.69,5.46,15.44c3.64,3.75,8.69,5.62,15.13,5.62Z"/>
      <path d="m9.08,27.46c0-1.66-1.34-3-3-3H0v42.83h26.46v-7.5H9.08V27.46Z"/>
      <path d="m39.74,64.46l2.24-7.36h15.62l2.24,7.36c.51,1.68,2.07,2.83,3.83,2.83h6.82l-15.18-43.01h-11.1l-15.12,43.01h6.82c1.76,0,3.31-1.15,3.83-2.83Zm7.6-24.94c.14-.45.36-1.2.67-2.26.31-1.05.64-2.17.98-3.35.34-1.18.61-2.17.81-2.97.19.8.45,1.74.78,2.83s.64,2.15.97,3.19c.32,1.04.58,1.9.78,2.56l3.11,9.96h-11.16l3.08-9.96Z"/>
      <polygon points="65.5 32.02 77.13 32.02 77.13 67.29 86.21 67.29 86.21 32.02 97.84 32.02 97.84 24.46 65.5 24.46 65.5 32.02"/>
      <path d="m124.4,67.29l11.79-34.72c-1.7-2.65-2.28-4.04-2.55-6.17-.14-1.11-1.06-1.94-2.18-1.94h-.06c-.95,0-1.8.62-2.09,1.53l-7.63,23.96c-.14.45-.36,1.26-.66,2.45-.3,1.18-.61,2.43-.91,3.74-.3,1.31-.51,2.39-.63,3.25-.12-.86-.34-1.95-.66-3.27s-.64-2.57-.95-3.75c-.31-1.18-.54-1.99-.67-2.42l-7.17-22.69c-.53-1.66-2.07-2.79-3.81-2.79h-6.24l14.53,42.83h9.9Z"/>
      <path d="m142.43,37.13v30.16h9.08v-30.12c-3.16,1.02-6.19,1.07-9.08-.04Z"/>
      <path d="m188.92,64.46l2.24-7.36h15.62l2.24,7.36c.51,1.68,2.07,2.83,3.83,2.83h6.82l-15.18-43.01h-11.1l-15.12,43.01h6.82c1.76,0,3.31-1.15,3.83-2.83Zm7.6-24.94c.14-.45.36-1.2.67-2.26.31-1.05.64-2.17.98-3.35.34-1.18.61-2.17.81-2.97.19.8.45,1.74.78,2.83s.64,2.15.97,3.19c.32,1.04.58,1.9.78,2.56l3.11,9.96h-11.16l3.08-9.96Z"/>
      <path d="m168.15,27.27l-.16,26.37c0,2.42-.47,4.16-1.41,5.21s-2.38,1.58-4.34,1.58c-.78,0-1.49-.09-2.12-.28-.63-.19-1.34-.46-2.12-.83l-2.78,7c1.37.61,2.7,1.04,4,1.29,1.3.25,2.58.38,3.85.38,4.57,0,8.09-1.21,10.55-3.62,2.46-2.41,3.69-5.98,3.69-10.71l-.03-29.38h-6.13c-1.65,0-2.99,1.33-3,2.98Z"/>
      <circle class="cls-4" cx="147" cy="24.46" r="8.5"/>
      <path class="cls-3" d="m137.58,14.71c2.54-2.45,5.89-3.81,9.42-3.81,7.48,0,13.56,6.08,13.56,13.56,0,4.01-1.76,7.79-4.83,10.38-.84.71-.95,1.97-.24,2.82.4.47.96.71,1.53.71.46,0,.91-.15,1.29-.47,3.98-3.35,6.25-8.25,6.25-13.44,0-9.68-7.88-17.56-17.56-17.56-4.58,0-8.91,1.75-12.2,4.93-.79.77-.82,2.03-.05,2.83.77.79,2.03.82,2.83.05Z"/>
      <path class="cls-1" d="m124.18,28.6c.06,0,.11,0,.17,0,.82-.09,1.41-.84,1.32-1.66-.09-.81-.14-1.64-.14-2.47,0-11.83,9.63-21.46,21.46-21.46,10.07,0,18.67,6.84,20.92,16.64.19.81.99,1.31,1.8,1.13.81-.19,1.31-.99,1.13-1.8-2.56-11.17-12.37-18.97-23.84-18.97-13.49,0-24.46,10.97-24.46,24.46,0,.94.05,1.88.16,2.81.09.77.74,1.33,1.49,1.33Z"/>
      <rect class="cls-4" x="234.65" y="83.06" width="10" height="10" rx="2" ry="2" transform="translate(7.92 195.25) rotate(-45)"/>
      <circle class="cls-4" cx="353.49" cy="86.87" r="8.5" transform="translate(232.41 430.15) rotate(-84.38)"/>
      <path class="cls-4" d="m414.75,59.41l-.84-1.81c-.47-1-1.66-1.43-2.66-.97l-48.03,22.4c.63.78,1.18,1.63,1.61,2.56.44.94.73,1.91.92,2.88l48.04-22.4c1-.47,1.43-1.66.97-2.66Z"/>
      <rect class="cls-4" x="270.52" y="88.11" width="10" height="10" rx="2" ry="2" transform="translate(14.86 222.09) rotate(-45)"/>
      <path class="cls-4" d="m314.3,102.35c1.28,0,2.56-.49,3.54-1.46l4.24-4.24c.94-.94,1.46-2.2,1.46-3.54s-.52-2.59-1.46-3.54l-4.24-4.24c-1.95-1.95-5.12-1.95-7.07,0l-4.24,4.24c-.94.94-1.46,2.2-1.46,3.54s.52,2.59,1.46,3.54l4.24,4.24c.97.97,2.25,1.46,3.54,1.46Zm-6.24-9.24c0-.53.21-1.04.59-1.41l4.24-4.24c.39-.39.9-.58,1.42-.58s1.02.2,1.41.58l4.24,4.24c.38.38.59.88.59,1.41s-.21,1.04-.59,1.41l-4.24,4.24c-.78.78-2.05.78-2.83,0l-4.24-4.24c-.38-.38-.59-.88-.59-1.41Z"/>
      <circle class="cls-2" cx="132.46" cy="18.86" r="2"/>
    </g>
  </g>
</svg>