<?xml version="1.0" encoding="utf-8"?>
<!-- Generator: Adobe Illustrator 28.1.0, SVG Export Plug-In . SVG Version: 6.00 Build 0)  -->
<svg version="1.1" id="Layer_2_00000129166651430109071360000006982027868824505500_"
	 xmlns="http://www.w3.org/2000/svg" xmlns:xlink="http://www.w3.org/1999/xlink" x="0px" y="0px" viewBox="0 0 393.5 102.3"
	 style="enable-background:new 0 0 393.5 102.3;" xml:space="preserve">
<style type="text/css">
	.st0{enable-background:new    ;}
	.st1{fill:#FFFFFF;}
	.st2{fill:#FFFFFF;}
	.st3{opacity:0.6;fill:#FFFFFF;enable-background:new    ;}
	.st4{opacity:0.3;fill:#FFFFFF;enable-background:new    ;}
</style>
<g id="Layer_1-2">
	<g>
		<g class="st0">
			<path class="st2" d="M13.3,90.6H9.8l-3.7-6l-1.3,0.9v5.1h-3V76.3h3v6.5L6,81.2l3.9-4.9h3.4l-5,6.3L13.3,90.6z"/>
			<path class="st2" d="M24.9,90.6h-3v-6.4c0-0.8-0.1-1.4-0.4-1.8s-0.7-0.6-1.3-0.6c-0.8,0-1.4,0.3-1.8,0.8s-0.6,1.5-0.6,2.8v5.1h-3
				V79.7h2.3l0.4,1.4h0.2c0.3-0.5,0.8-0.9,1.4-1.2s1.2-0.4,2-0.4c1.3,0,2.2,0.3,2.9,1s1,1.7,1,3V90.6z"/>
			<path class="st2" d="M37.9,85.1c0,1.8-0.5,3.2-1.4,4.2s-2.2,1.5-3.9,1.5c-1,0-2-0.2-2.8-0.7s-1.4-1.1-1.8-2s-0.6-1.9-0.6-3
				c0-1.8,0.5-3.2,1.4-4.2s2.2-1.5,3.9-1.5c1,0,2,0.2,2.8,0.7s1.4,1.1,1.8,2S37.9,84,37.9,85.1z M30.4,85.1c0,1.1,0.2,1.9,0.5,2.5
				s0.9,0.8,1.7,0.8c0.8,0,1.4-0.3,1.7-0.8s0.5-1.4,0.5-2.5c0-1.1-0.2-1.9-0.5-2.4s-0.9-0.8-1.7-0.8c-0.8,0-1.4,0.3-1.7,0.8
				S30.4,84,30.4,85.1z"/>
			<path class="st2" d="M49.3,90.6l-0.8-3.8l-1.1-4.8h-0.1l-2,8.6h-3.2L39,79.7h3l1.3,4.8c0.2,0.9,0.4,2.1,0.6,3.6h0.1
				c0-0.5,0.1-1.3,0.3-2.4l0.2-0.8l1.3-5.2H49l1.3,5.2c0,0.1,0.1,0.4,0.1,0.6s0.1,0.6,0.2,0.9s0.1,0.6,0.1,0.9s0.1,0.5,0.1,0.7h0.1
				c0.1-0.5,0.2-1.1,0.3-1.9s0.3-1.4,0.3-1.7l1.3-4.8h2.9l-3.1,10.9H49.3z"/>
			<path class="st2" d="M60.5,90.6h-3V75.4h3V90.6z"/>
			<path class="st2" d="M68.5,90.8c-1.8,0-3.1-0.5-4.1-1.5s-1.5-2.3-1.5-4.1c0-1.8,0.5-3.2,1.4-4.2s2.2-1.5,3.8-1.5
				c1.5,0,2.7,0.4,3.6,1.3s1.3,2.1,1.3,3.6v1.4h-7c0,0.8,0.3,1.5,0.8,2s1.1,0.7,2,0.7c0.7,0,1.3-0.1,1.9-0.2s1.2-0.4,1.8-0.7V90
				c-0.5,0.3-1.1,0.5-1.7,0.6S69.4,90.8,68.5,90.8z M68.1,81.6c-0.6,0-1.1,0.2-1.5,0.6s-0.6,1-0.6,1.7h4.2c0-0.7-0.2-1.3-0.6-1.7
				S68.7,81.6,68.1,81.6z"/>
			<path class="st2" d="M78.9,90.8c-1.3,0-2.3-0.5-3-1.5s-1.1-2.4-1.1-4.1c0-1.8,0.4-3.2,1.1-4.2s1.8-1.5,3.1-1.5
				c1.4,0,2.4,0.5,3.1,1.6h0.1C82,80.2,82,79.5,82,78.9v-3.5h3v15.2h-2.3l-0.6-1.4H82C81.3,90.2,80.3,90.8,78.9,90.8z M79.9,88.4
				c0.8,0,1.3-0.2,1.7-0.7s0.5-1.2,0.6-2.3v-0.3c0-1.2-0.2-2-0.5-2.5s-0.9-0.8-1.8-0.8c-0.7,0-1.2,0.3-1.5,0.8s-0.6,1.4-0.6,2.5
				s0.2,1.9,0.6,2.4S79.2,88.4,79.9,88.4z"/>
			<path class="st2" d="M97.6,79.7v1.5l-1.7,0.4c0.3,0.5,0.5,1,0.5,1.6c0,1.2-0.4,2.1-1.2,2.7s-2,1-3.4,1l-0.5,0l-0.4,0
				c-0.3,0.2-0.5,0.5-0.5,0.8c0,0.4,0.5,0.6,1.6,0.6h1.9c1.2,0,2.1,0.3,2.7,0.8s0.9,1.3,0.9,2.3c0,1.3-0.5,2.3-1.6,3
				s-2.6,1.1-4.6,1.1c-1.5,0-2.7-0.3-3.5-0.8s-1.2-1.3-1.2-2.2c0-0.7,0.2-1.2,0.6-1.7s1-0.8,1.8-0.9c-0.3-0.1-0.6-0.3-0.8-0.6
				s-0.3-0.6-0.3-0.9c0-0.4,0.1-0.8,0.4-1s0.6-0.5,1-0.8c-0.6-0.2-1-0.6-1.4-1.2s-0.5-1.2-0.5-1.9c0-1.2,0.4-2.1,1.2-2.8
				s1.9-1,3.3-1c0.3,0,0.7,0,1.1,0.1s0.7,0.1,0.8,0.1H97.6z M89.1,92.1c0,0.4,0.2,0.7,0.6,1s0.9,0.4,1.7,0.4c1.1,0,1.9-0.1,2.5-0.4
				s0.9-0.7,0.9-1.2c0-0.4-0.2-0.7-0.5-0.8s-0.9-0.2-1.7-0.2h-1.5c-0.5,0-1,0.1-1.4,0.4S89.1,91.7,89.1,92.1z M90.2,83.2
				c0,0.6,0.1,1.1,0.4,1.4s0.7,0.5,1.2,0.5c0.6,0,1-0.2,1.2-0.5s0.4-0.8,0.4-1.4c0-1.3-0.5-2-1.6-2C90.8,81.3,90.2,81.9,90.2,83.2z"
				/>
			<path class="st2" d="M104.3,90.8c-1.8,0-3.1-0.5-4.1-1.5s-1.5-2.3-1.5-4.1c0-1.8,0.5-3.2,1.4-4.2s2.2-1.5,3.8-1.5
				c1.5,0,2.7,0.4,3.6,1.3s1.3,2.1,1.3,3.6v1.4h-7c0,0.8,0.3,1.5,0.8,2s1.1,0.7,2,0.7c0.7,0,1.3-0.1,1.9-0.2s1.2-0.4,1.8-0.7V90
				c-0.5,0.3-1.1,0.5-1.7,0.6S105.2,90.8,104.3,90.8z M103.9,81.6c-0.6,0-1.1,0.2-1.5,0.6s-0.6,1-0.6,1.7h4.2c0-0.7-0.2-1.3-0.6-1.7
				S104.5,81.6,103.9,81.6z"/>
			<path class="st2" d="M117.3,79.5c1.3,0,2.3,0.5,3,1.5s1.1,2.4,1.1,4.1c0,1.8-0.4,3.2-1.1,4.2s-1.8,1.5-3.1,1.5
				c-1.3,0-2.3-0.5-3-1.4H114l-0.5,1.2h-2.3V75.4h3v3.5c0,0.4,0,1.2-0.1,2.2h0.1C114.9,80,115.9,79.5,117.3,79.5z M116.3,81.8
				c-0.7,0-1.3,0.2-1.6,0.7s-0.5,1.2-0.5,2.2v0.3c0,1.2,0.2,2,0.5,2.5s0.9,0.8,1.7,0.8c0.6,0,1.1-0.3,1.5-0.8s0.5-1.4,0.5-2.5
				s-0.2-1.9-0.5-2.4S116.9,81.8,116.3,81.8z"/>
			<path class="st2" d="M130.8,90.6l-0.6-1.5h-0.1c-0.5,0.6-1,1.1-1.5,1.3s-1.2,0.4-2.1,0.4c-1,0-1.9-0.3-2.5-0.9s-0.9-1.5-0.9-2.6
				c0-1.2,0.4-2,1.2-2.6s2-0.9,3.7-0.9l1.9-0.1v-0.5c0-1.1-0.6-1.7-1.7-1.7c-0.9,0-1.9,0.3-3.1,0.8l-1-2c1.3-0.7,2.6-1,4.2-1
				c1.5,0,2.6,0.3,3.4,1s1.2,1.6,1.2,2.9v7.3H130.8z M129.9,85.5l-1.2,0c-0.9,0-1.5,0.2-1.9,0.5s-0.6,0.7-0.6,1.3
				c0,0.8,0.5,1.3,1.4,1.3c0.7,0,1.2-0.2,1.7-0.6s0.6-0.9,0.6-1.6V85.5z"/>
			<path class="st2" d="M143.5,87.3c0,1.1-0.4,2-1.2,2.6s-1.9,0.9-3.5,0.9c-0.8,0-1.5-0.1-2-0.2s-1.1-0.3-1.6-0.5v-2.5
				c0.6,0.3,1.2,0.5,1.9,0.7s1.3,0.3,1.8,0.3c1.1,0,1.6-0.3,1.6-0.9c0-0.2-0.1-0.4-0.2-0.6s-0.4-0.3-0.7-0.5s-0.8-0.4-1.4-0.6
				c-0.8-0.4-1.5-0.7-1.9-1s-0.7-0.6-0.9-1s-0.3-0.9-0.3-1.4c0-1,0.4-1.7,1.1-2.3s1.8-0.8,3.2-0.8c1.3,0,2.6,0.3,3.8,0.9l-0.9,2.1
				c-0.5-0.2-1.1-0.4-1.5-0.6s-1-0.2-1.5-0.2c-0.9,0-1.3,0.2-1.3,0.7c0,0.3,0.1,0.5,0.4,0.7s0.9,0.5,1.9,0.9c0.9,0.3,1.5,0.7,1.9,1
				s0.7,0.6,0.9,1S143.5,86.8,143.5,87.3z"/>
			<path class="st2" d="M150.8,90.8c-1.8,0-3.1-0.5-4.1-1.5s-1.5-2.3-1.5-4.1c0-1.8,0.5-3.2,1.4-4.2s2.2-1.5,3.8-1.5
				c1.5,0,2.7,0.4,3.6,1.3s1.3,2.1,1.3,3.6v1.4h-7c0,0.8,0.3,1.5,0.8,2s1.1,0.7,2,0.7c0.7,0,1.3-0.1,1.9-0.2s1.2-0.4,1.8-0.7V90
				c-0.5,0.3-1.1,0.5-1.7,0.6S151.7,90.8,150.8,90.8z M150.4,81.6c-0.6,0-1.1,0.2-1.5,0.6s-0.6,1-0.6,1.7h4.2c0-0.7-0.2-1.3-0.6-1.7
				S151,81.6,150.4,81.6z"/>
		</g>
		<path class="st2" d="M232.8,34.9c-1.5,0-2.8,0.9-3.3,2.3l-5.9,16.7c-0.4,1.2-0.8,2.5-1.2,3.9c-0.4,1.4-0.6,2.6-0.8,3.6h-0.2
			c-0.1-1-0.4-2.1-0.7-3.5s-0.7-2.7-1.2-3.9l-5.9-16.7c-0.5-1.4-1.8-2.3-3.3-2.3h-4.8l12.3,32.4h7.4l12.3-32.4H232.8L232.8,34.9z"/>
		<path class="st2" d="M250.3,25l-15.7,42.3h4.8c1.5,0,2.8-0.9,3.3-2.3l3.3-9.4h16.1l3.3,9.4c0.5,1.4,1.8,2.3,3.3,2.3h4.9L257.9,25
			L250.3,25L250.3,25z M247.9,49.7l4-11.6c0.1-0.4,0.3-1.1,0.6-2s0.5-1.8,0.8-2.7s0.5-1.9,0.7-2.6c0.2,0.6,0.4,1.5,0.7,2.4
			c0.3,1,0.6,1.9,0.9,2.8c0.3,0.9,0.5,1.6,0.7,2.1l4,11.6L247.9,49.7L247.9,49.7z"/>
		<path class="st2" d="M302.2,60.3c-0.9,0.4-1.8,0.7-2.7,0.9c-1.6,0.4-3,0.6-4.5,0.6c-4.2,0-7.6-1.4-10.1-4.1s-3.7-6.5-3.7-11.2
			s1.4-8.6,4.1-11.4c2.7-2.8,6.2-4.2,10.4-4.2c1.6,0,3.1,0.1,4.5,0.4c0.7,0.1,1.4,0.3,2.1,0.5c1.2,0.4,2.6-0.2,3.1-1.4l1.5-3.6
			c-1.8-0.8-3.6-1.4-5.4-1.7s-3.7-0.5-5.9-0.5c-6.5,0-11.8,2.1-15.8,6.2c-4,4.1-6,9.5-6,16.1s1.8,11.7,5.5,15.4
			c3.6,3.8,8.7,5.6,15.1,5.6c2.4,0,4.5-0.2,6.6-0.7s4.1-1.2,6.2-2.2l-1.7-3.6C304.8,60.4,303.4,59.8,302.2,60.3L302.2,60.3z"/>
		<path class="st2" d="M337.3,67.3c2-0.4,4.1-1.2,6.2-2.2l-1.7-3.6c-0.6-1.2-1.9-1.7-3.1-1.3c-0.9,0.4-1.8,0.7-2.7,0.9
			c-1.6,0.4-3,0.6-4.5,0.6c-4.2,0-7.6-1.4-10.1-4.1s-3.7-6.5-3.7-11.2s1.4-8.6,4.1-11.4c2.7-2.8,6.2-4.2,10.4-4.2
			c1.6,0,3.1,0.1,4.5,0.4c0.7,0.1,1.4,0.3,2.1,0.5c1.2,0.4,2.6-0.2,3.1-1.4l1.5-3.6c-1.8-0.8-3.6-1.4-5.4-1.7s-3.7-0.5-5.9-0.5
			c-6.5,0-11.8,2.1-15.8,6.2c-4,4.1-6,9.5-6,16.1s1.8,11.7,5.5,15.4c3.6,3.8,8.7,5.6,15.1,5.6C333.1,68,335.3,67.8,337.3,67.3
			L337.3,67.3z"/>
		<path class="st2" d="M10.9,27.5c0-1.7-1.3-3-3-3H1.8v42.8h26.5v-7.5H10.9V27.5z"/>
		<path class="st2" d="M46,24.3l-15.1,43h6.8c1.8,0,3.3-1.2,3.8-2.8l2.2-7.4h15.6l2.2,7.4c0.5,1.7,2.1,2.8,3.8,2.8h6.8l-15.2-43
			C57.1,24.3,46,24.3,46,24.3z M46.1,49.5l3.1-10c0.1-0.5,0.4-1.2,0.7-2.3c0.3-1,0.6-2.2,1-3.3s0.6-2.2,0.8-3
			c0.2,0.8,0.5,1.7,0.8,2.8s0.6,2.2,1,3.2c0.3,1,0.6,1.9,0.8,2.6l3.1,10L46.1,49.5L46.1,49.5z"/>
		<polygon class="st2" points="67.3,32 78.9,32 78.9,67.3 88,67.3 88,32 99.6,32 99.6,24.5 67.3,24.5 		"/>
		<path class="st2" d="M133.2,24.5L133.2,24.5c-1,0-1.9,0.6-2.1,1.5l-7.6,24c-0.1,0.5-0.4,1.3-0.7,2.5c-0.3,1.2-0.6,2.4-0.9,3.7
			s-0.5,2.4-0.6,3.2c-0.1-0.9-0.3-2-0.7-3.3s-0.6-2.6-0.9-3.8s-0.5-2-0.7-2.4l-7.2-22.7c-0.5-1.7-2.1-2.8-3.8-2.8h-6.2l14.5,42.8
			h9.9L138,32.6c-1.7-2.6-2.3-4-2.6-6.2C135.3,25.3,134.4,24.5,133.2,24.5L133.2,24.5z"/>
		<path class="st2" d="M144.2,37.1v30.2h9.1V37.2C150.1,38.2,147.1,38.2,144.2,37.1z"/>
		<path class="st2" d="M172,24.3l-15.1,43h6.8c1.8,0,3.3-1.2,3.8-2.8l2.2-7.4h15.6l2.2,7.4c0.5,1.7,2.1,2.8,3.8,2.8h6.8l-15.2-43
			L172,24.3L172,24.3z M172.1,49.5l3.1-10c0.1-0.5,0.4-1.2,0.7-2.3c0.3-1,0.6-2.2,1-3.3s0.6-2.2,0.8-3c0.2,0.8,0.4,1.7,0.8,2.8
			s0.6,2.2,1,3.2c0.3,1,0.6,1.9,0.8,2.6l3.1,10L172.1,49.5L172.1,49.5z"/>
		<circle class="st1" cx="148.8" cy="24.5" r="8.5"/>
		<path class="st3" d="M158.8,38.4c0.5,0,0.9-0.2,1.3-0.5c4-3.3,6.2-8.2,6.2-13.4c0-9.7-7.9-17.6-17.6-17.6c-4.6,0-8.9,1.8-12.2,4.9
			c-0.8,0.8-0.8,2-0.1,2.8c0.8,0.8,2,0.8,2.8,0.1c2.5-2.4,5.9-3.8,9.4-3.8c7.5,0,13.6,6.1,13.6,13.6c0,4-1.8,7.8-4.8,10.4
			c-0.8,0.7-0.9,2-0.2,2.8C157.7,38.1,158.2,38.4,158.8,38.4L158.8,38.4z"/>
		<path class="st4" d="M169.7,19.6c0.2,0.8,1,1.3,1.8,1.1c0.8-0.2,1.3-1,1.1-1.8c-2.6-11.2-12.4-19-23.8-19
			c-13.5,0-24.5,11-24.5,24.5c0,0.9,0.1,1.9,0.2,2.8c0.1,0.8,0.7,1.3,1.5,1.3c0.1,0,0.1,0,0.2,0c0.8-0.1,1.4-0.8,1.3-1.7
			c-0.1-0.8-0.1-1.6-0.1-2.5C127.3,12.6,137,3,148.8,3C158.9,3,167.5,9.9,169.7,19.6L169.7,19.6z"/>
		<path class="st1" d="M212.6,86.7l4.2-4.2c0.8-0.8,2-0.8,2.8,0l4.2,4.2c0.8,0.8,0.8,2,0,2.8l-4.2,4.2c-0.8,0.8-2,0.8-2.8,0
			l-4.2-4.2C211.8,88.7,211.8,87.4,212.6,86.7z"/>
		<circle class="st1" cx="332.1" cy="86.9" r="8.5"/>
		<path class="st1" d="M392.5,57.6c-0.5-1-1.7-1.4-2.7-1l-48,22.4c0.6,0.8,1.2,1.6,1.6,2.6c0.4,0.9,0.7,1.9,0.9,2.9l48-22.4
			c1-0.5,1.4-1.7,1-2.7L392.5,57.6L392.5,57.6z"/>
		<path class="st1" d="M248.5,91.7l4.2-4.2c0.8-0.8,2-0.8,2.8,0l4.2,4.2c0.8,0.8,0.8,2,0,2.8l-4.2,4.2c-0.8,0.8-2,0.8-2.8,0
			l-4.2-4.2C247.7,93.7,247.7,92.5,248.5,91.7z"/>
		<path class="st1" d="M296.5,85.3c-2-1.9-5.1-1.9-7.1,0l-4.2,4.2c-0.9,0.9-1.5,2.2-1.5,3.5s0.5,2.6,1.5,3.5l4.2,4.2
			c1,1,2.2,1.5,3.5,1.5s2.6-0.5,3.5-1.5l4.2-4.2c0.9-0.9,1.5-2.2,1.5-3.5s-0.5-2.6-1.5-3.5L296.5,85.3L296.5,85.3z M298.6,94.5
			l-4.2,4.2c-0.8,0.8-2,0.8-2.8,0l-4.2-4.2c-0.4-0.4-0.6-0.9-0.6-1.4s0.2-1,0.6-1.4l4.2-4.2c0.4-0.4,0.9-0.6,1.4-0.6s1,0.2,1.4,0.6
			l4.2,4.2c0.4,0.4,0.6,0.9,0.6,1.4S299,94.1,298.6,94.5L298.6,94.5z"/>
		<circle class="st3" cx="134.3" cy="18.9" r="2"/>
	</g>
</g>
</svg>
